<?xml version="1.0" encoding="UTF-8"?>
<svg version="1.1" xmlns="http://www.w3.org/2000/svg" width="1254" height="1254">
<path d="M0 0 C413.82 0 827.64 0 1254 0 C1254 413.82 1254 827.64 1254 1254 C840.18 1254 426.36 1254 0 1254 C0 840.18 0 426.36 0 0 Z " fill="#010417" transform="translate(0,0)"/>
<path d="M0 0 C1.04441254 -0.00261841 2.08882507 -0.00523682 3.16488647 -0.00793457 C19.25906529 -0.01225445 34.54368599 0.86400416 50.3125 4.3125 C51.98671523 4.65234453 53.66118724 4.99092696 55.3359375 5.328125 C59.68595059 6.22963587 64.00123467 7.24226104 68.3125 8.3125 C68.98877441 8.4775 69.66504883 8.6425 70.36181641 8.8125 C77.36399386 10.53487082 84.07933173 12.54153408 90.75976562 15.27294922 C93.12578737 16.23646496 95.50270528 17.15881101 97.890625 18.06640625 C130.79376259 30.71903406 159.82869044 49.12978852 186.3125 72.3125 C187.58480469 73.38371094 187.58480469 73.38371094 188.8828125 74.4765625 C189.62273437 75.10304688 190.36265625 75.72953125 191.125 76.375 C192.06279297 77.16583984 192.06279297 77.16583984 193.01953125 77.97265625 C194.3125 79.3125 194.3125 79.3125 194.3125 81.3125 C195.3025 81.6425 196.2925 81.9725 197.3125 82.3125 C198.78515625 83.7734375 198.78515625 83.7734375 200.375 85.6875 C203.16316309 88.98896508 206.04104972 92.16326353 209 95.3125 C248.6909441 138.97253851 269.71791944 195.606172 277.3125 253.3125 C277.49353271 254.56780518 277.67456543 255.82311035 277.86108398 257.11645508 C278.44131566 261.81535103 278.4563017 266.4816992 278.4453125 271.2109375 C278.44626923 272.12710846 278.44722595 273.04327942 278.44821167 273.98721313 C278.44888803 275.90830556 278.44707196 277.82940033 278.44287109 279.75048828 C278.43747788 282.69959567 278.44285343 285.64855332 278.44921875 288.59765625 C278.4485586 290.46875034 278.44727874 292.33984433 278.4453125 294.2109375 C278.44733673 295.09421722 278.44936096 295.97749695 278.45144653 296.88754272 C278.42748331 303.08253338 278.42748331 303.08253338 277.3125 305.3125 C277.08161644 306.86459105 276.89616239 308.42356794 276.734375 309.984375 C272.57570705 347.73762783 261.29202408 404.33297592 233.3125 432.3125 C231.1328125 432.68359375 231.1328125 432.68359375 228.3125 432.3125 C226.08751913 430.73376689 224.18484488 429.20216616 222.1875 427.375 C221.0360325 426.35838166 219.88367424 425.34277142 218.73046875 424.328125 C218.15731934 423.81830078 217.58416992 423.30847656 216.99365234 422.78320312 C214.55786861 420.65233452 212.02955228 418.64299708 209.5 416.625 C195.77047998 405.42830505 195.77047998 405.42830505 195.05224609 398.97363281 C194.8013862 391.5336918 196.46096807 386.56730042 199.9375 380.0625 C206.53440933 367.28721637 211.6384011 354.57144207 215.01831055 340.60766602 C215.49667261 338.63869577 215.9960722 336.67595704 216.49804688 334.71289062 C220.87135869 317.27380286 222.80414788 300.21354351 222.64868164 282.23681641 C222.62478954 279.286511 222.62819191 276.33709857 222.63476562 273.38671875 C222.62083685 263.83218239 222.35330234 254.68602746 220.3125 245.3125 C220.02208563 243.69862355 219.73550535 242.08405154 219.453125 240.46875 C209.60860447 187.98132614 181.49603602 138.52203174 139.3125 105.3125 C138.36117188 104.53261719 137.40984375 103.75273437 136.4296875 102.94921875 C98.91776872 72.87252684 49.20616401 55.67384512 1.1875 56.0625 C0.11566971 56.06814972 0.11566971 56.06814972 -0.97781372 56.07391357 C-55.56772846 56.40889077 -113.86461759 75.06784112 -153.1875 114.6875 C-153.79464844 115.32429688 -154.40179688 115.96109375 -155.02734375 116.6171875 C-156.6875 118.3125 -156.6875 118.3125 -159.75 120.8125 C-163.50481507 124.0080873 -166.53324013 127.53194304 -169.6875 131.3125 C-170.14543945 131.84746094 -170.60337891 132.38242187 -171.07519531 132.93359375 C-191.32711805 156.61914382 -205.71934172 183.85647876 -215.6875 213.3125 C-216.10515625 214.53582031 -216.5228125 215.75914062 -216.953125 217.01953125 C-221.92096811 233.00731204 -225.75819967 251.13711914 -225.85546875 267.87890625 C-225.85979416 268.58616348 -225.86411957 269.29342072 -225.86857605 270.02210999 C-225.87864759 272.3064757 -225.87876202 274.5906166 -225.875 276.875 C-225.87373108 277.65905212 -225.87246216 278.44310425 -225.87115479 279.25091553 C-225.80371087 301.10553141 -223.62538723 321.19485189 -217.6875 342.3125 C-217.41196289 343.29444336 -217.13642578 344.27638672 -216.85253906 345.28808594 C-206.65401031 380.57617445 -188.04644244 411.87578298 -162.6875 438.3125 C-161.81182373 439.23699951 -161.81182373 439.23699951 -160.91845703 440.18017578 C-146.23106107 455.62155266 -130.17975932 467.76749047 -111.6875 478.3125 C-110.94306641 478.74159668 -110.19863281 479.17069336 -109.43164062 479.61279297 C-81.79786648 495.38219606 -52.35785243 503.09373991 -20.88378906 505.93286133 C-19.75158684 506.04019089 -19.75158684 506.04019089 -18.59651184 506.14968872 C-17.18410941 506.28215087 -15.77075299 506.40497776 -14.35649109 506.51583862 C-8.8925076 507.03160153 -3.6581252 508.21158553 0.203125 512.328125 C1.60887659 514.63872818 2.99215562 516.95188429 4.3125 519.3125 C4.93125 520.34375 5.55 521.375 6.1875 522.4375 C9.41819632 531.07911714 8.24661272 540.06760453 4.63989258 548.28564453 C-0.28622399 558.69601459 -0.28622399 558.69601459 -4.6875 561.3125 C-7.16674805 561.68481445 -7.16674805 561.68481445 -9.94921875 561.67578125 C-10.9767627 561.67682861 -12.00430664 561.67787598 -13.06298828 561.67895508 C-14.15595215 561.6611499 -15.24891602 561.64334473 -16.375 561.625 C-17.50405762 561.61299561 -18.63311523 561.60099121 -19.79638672 561.58862305 C-77.0208904 560.630396 -132.43994199 535.44921855 -176.6875 500.3125 C-177.53175537 499.64395996 -177.53175537 499.64395996 -178.39306641 498.96191406 C-186.57822532 492.39932126 -194.05878568 485.13655214 -201.5 477.75 C-202.37164795 476.88769775 -203.2432959 476.02539551 -204.14135742 475.13696289 C-230.08711325 449.06282384 -249.39058182 416.22718524 -262.92382812 382.21435547 C-263.56651356 380.61380575 -264.24063712 379.02593107 -264.921875 377.44140625 C-267.71568905 370.89743412 -269.44529382 364.10617576 -271.1875 357.22412109 C-271.65450845 355.43863467 -272.16926893 353.66582886 -272.6875 351.89453125 C-276.15719645 339.8996822 -277.95285117 327.65935383 -279.6875 315.3125 C-279.80899414 314.47654297 -279.93048828 313.64058594 -280.05566406 312.77929688 C-285.7507904 272.28439858 -280.01089907 231.82792053 -267.30273438 193.23339844 C-266.56326086 190.92459779 -265.93608416 188.59243792 -265.3125 186.25 C-254.97264763 151.94048985 -232.81188358 118.71569317 -208.73828125 92.546875 C-206.82364309 90.46083114 -204.96927042 88.33567954 -203.125 86.1875 C-172.08131399 50.63747247 -126.47776525 24.49510773 -81.6875 11.3125 C-80.83768555 11.06032715 -79.98787109 10.8081543 -79.11230469 10.54833984 C-73.99359705 9.04397135 -68.85513965 7.63840754 -63.6875 6.3125 C-62.5428125 6.01601563 -61.398125 5.71953125 -60.21875 5.4140625 C-52.12962989 3.43105005 -43.97183643 2.14992928 -35.6875 1.3125 C-34.41749146 1.18113647 -34.41749146 1.18113647 -33.12182617 1.04711914 C-22.10172828 0.05119143 -11.05768827 0.02653001 0 0 Z " fill="#744CE9" transform="translate(629.6875,328.6875)"/>
<path d="M0 0 C1.66728653 -0.01270432 1.66728653 -0.01270432 3.36825562 -0.02566528 C7.04290232 -0.04905707 10.71713014 -0.05005603 14.3918457 -0.04882812 C16.96092392 -0.05593413 19.53000057 -0.06363377 22.09907532 -0.07189941 C27.49171996 -0.08535349 32.8842024 -0.08709348 38.27685547 -0.08105469 C44.46163348 -0.07445392 50.64580901 -0.09711885 56.83046502 -0.13436842 C62.82230763 -0.16911606 68.81383795 -0.17537323 74.80579567 -0.17127991 C77.33279005 -0.17295854 79.85979326 -0.18247797 82.38672447 -0.20042419 C111.76613002 -0.38593784 136.42459275 6.30478699 157.8449707 27.26367188 C176.80659946 46.62040149 184.17817823 69.89840397 184.19482422 96.34887695 C183.90772044 120.6541659 173.83356684 142.95691809 156.40112305 160.02392578 C145.480311 170.04723289 127.08288544 181.41992188 111.88012695 181.41992188 C117.14594006 187.4815331 122.49884167 193.46078046 127.88012695 199.41992188 C134.16402742 206.3786036 140.43541663 213.34141658 146.48950195 220.50195312 C152.49064562 227.58370814 158.64948585 234.46897725 165.01245117 241.22802734 C168.45726936 244.88808662 171.83246244 248.58599925 175.10668945 252.40039062 C177.0233203 254.58298566 178.99562595 256.71001056 180.97338867 258.8371582 C190.53948432 269.1424088 196.64979907 275.99618765 196.25512695 290.42382812 C195.79517273 297.45619969 192.56180774 302.0920946 187.50512695 306.79492188 C182.50437963 310.68319193 177.46444251 313.06443072 170.9855957 312.76367188 C163.1379386 311.48242174 157.97381374 307.24298635 152.88012695 301.41992188 C152.35161133 300.82308594 151.8230957 300.22625 151.27856445 299.61132812 C150.14518841 298.31949429 149.01790408 297.0222985 147.89575195 295.72070312 C145.43532466 292.91219212 142.91039495 290.16528617 140.38012695 287.41992188 C137.36071941 284.14150523 134.35810192 280.85410808 131.44262695 277.48242188 C127.81800606 273.2988233 124.04627628 269.25557578 120.28271484 265.19750977 C117.60611658 262.30628059 114.95701516 259.40102784 112.38012695 256.41992188 C107.85975245 251.19735328 103.12883719 246.16643534 98.43530273 241.10009766 C86.98773072 228.73240682 86.98773072 228.73240682 82.50512695 223.54492188 C78.66258393 219.10836254 74.63981048 214.84157628 70.63623047 210.55102539 C67.85688677 207.56701838 65.10191421 204.57477372 62.44262695 201.48242188 C59.10634033 197.61630313 55.61948145 193.89728181 52.13012695 190.16992188 C51.52225342 189.52007324 50.91437988 188.87022461 50.28808594 188.20068359 C49.06782755 186.89628622 47.84753162 185.59192396 46.62719727 184.28759766 C46.05066406 183.67126465 45.47413086 183.05493164 44.88012695 182.41992188 C44.35773438 181.86159668 43.8353418 181.30327148 43.29711914 180.72802734 C23.27216123 159.27647197 23.27216123 159.27647197 23.56762695 149.47070312 C24.55055676 143.02022625 28.86067287 139.12995315 33.88012695 135.41992188 C36.53045079 134.09475996 38.54824827 134.28069162 41.51635742 134.26220703 C42.69873993 134.25194489 43.88112244 134.24168274 45.09933472 134.23110962 C47.02883469 134.22015762 47.02883469 134.22015762 48.99731445 134.20898438 C50.33335184 134.19601229 51.66938127 134.18219528 53.00540161 134.16757202 C58.67776167 134.10611471 64.35010697 134.05224556 70.02270508 134.01855469 C73.49412741 133.99738479 76.96517132 133.96189374 80.43637466 133.91779709 C82.38131821 133.8970549 84.32640613 133.89162446 86.27145386 133.8866272 C99.88922421 133.70078192 111.87357517 131.15211184 122.13012695 121.79492188 C126.44405835 117.27474674 128.58377784 112.15189407 130.88012695 106.41992188 C131.42926758 105.53240234 131.42926758 105.53240234 131.98950195 104.62695312 C134.90734843 97.39632478 133.76922961 85.77658485 131.38012695 78.48242188 C127.1428005 68.818344 121.15796029 61.45692421 111.88012695 56.41992188 C111.17500977 56.0203125 110.46989258 55.62070312 109.7434082 55.20898438 C102.48531941 51.31035383 95.50241962 51.27653469 87.41186523 51.29394531 C86.3704538 51.29207718 85.32904236 51.29020905 84.256073 51.2882843 C82.00042085 51.28428919 79.74476469 51.28220628 77.48910904 51.2818222 C72.68904869 51.2783967 67.88912258 51.25702439 63.08910942 51.23659134 C54.15826468 51.19861415 45.22756567 51.1673086 36.29663086 51.16943359 C30.07793592 51.17022104 23.85973613 51.14684569 17.6411705 51.10755157 C15.27538148 51.09709866 12.90953528 51.09556226 10.5437355 51.10320282 C7.23100513 51.11283608 3.91977292 51.09161975 0.60717773 51.06347656 C-0.36451355 51.07367325 -1.33620483 51.08386993 -2.33734131 51.09437561 C-9.88198602 50.97974438 -14.57135376 48.64774984 -20.1081543 43.61132812 C-20.54514648 43.07378906 -20.98213867 42.53625 -21.43237305 41.98242188 C-21.88225586 41.44746094 -22.33213867 40.9125 -22.7956543 40.36132812 C-27.71689598 33.14641037 -27.82772203 26.94401873 -27.11987305 18.41992188 C-25.9341688 12.44867257 -21.57395495 7.39832513 -17.11987305 3.41992188 C-11.54835466 -0.21549728 -6.42599308 -0.01806231 0 0 Z " fill="#5E41F0" transform="translate(551.119873046875,486.580078125)"/>
<path d="M0 0 C7.04858391 4.00876335 12.01013046 9.80604005 14.5 17.5625 C15.55448079 26.65323438 14.74750711 33.96666098 9.5 41.5625 C5.34412018 46.61694842 -0.28147988 50.48965996 -6.5 52.5625 C-15.06586213 53.38274619 -22.17728481 53.47555111 -29.41796875 48.32421875 C-36.22682268 42.56288081 -40.53301418 35.99591589 -41.8828125 27.015625 C-42.26450722 18.82191163 -39.38614327 12.61325699 -34.3125 6.3125 C-24.86614184 -3.63103491 -12.70649821 -5.7075613 0 0 Z " fill="#343DEB" transform="translate(811.5,800.4375)"/>
<path d="M0 0 C1.04142151 -0.00328308 2.08284302 -0.00656616 3.15582275 -0.00994873 C19.22517649 -0.02633247 34.56954208 0.84306528 50.3125 4.3125 C51.16360352 4.48040039 52.01470703 4.64830078 52.89160156 4.82128906 C53.70338867 4.9859668 54.51517578 5.15064453 55.3515625 5.3203125 C56.06779785 5.46355957 56.7840332 5.60680664 57.52197266 5.75439453 C59.3125 6.3125 59.3125 6.3125 61.3125 8.3125 C57.99066414 8.3125 55.40450676 8.01746345 52.1875 7.375 C47.61026724 6.50606009 43.08308408 5.94169011 38.4453125 5.52734375 C36.02503906 5.28354331 33.69697458 4.78939492 31.3125 4.3125 C14.00905889 2.10208038 -3.47680498 1.76773678 -20.875 2.75 C-21.56972412 2.78915527 -22.26444824 2.82831055 -22.98022461 2.86865234 C-26.94227636 3.12108625 -30.78044035 3.62452892 -34.6875 4.3125 C-38.40200738 4.79401022 -42.1184559 5.25689312 -45.8359375 5.71484375 C-49.1793793 6.23365368 -52.33843423 6.92551076 -55.60302734 7.77954102 C-57.79181041 8.33917014 -59.98758139 8.8332861 -62.1953125 9.3125 C-62.95457031 9.4775 -63.71382812 9.6425 -64.49609375 9.8125 C-66.04783012 10.14744478 -67.59991843 10.48076304 -69.15234375 10.8125 C-76.18080905 12.34511253 -82.67738438 14.66813763 -89.3203125 17.41015625 C-91.6875 18.3125 -91.6875 18.3125 -93.49731445 18.734375 C-124.60813402 26.9464384 -153.33487908 47.26295874 -178.6875 66.3125 C-179.3475 65.9825 -180.0075 65.6525 -180.6875 65.3125 C-152.62213205 40.09203764 -117.74744719 21.92561283 -81.6875 11.3125 C-80.83768555 11.06032715 -79.98787109 10.8081543 -79.11230469 10.54833984 C-73.99359705 9.04397135 -68.85513965 7.63840754 -63.6875 6.3125 C-62.5428125 6.01601563 -61.398125 5.71953125 -60.21875 5.4140625 C-52.12962989 3.43105005 -43.97183643 2.14992928 -35.6875 1.3125 C-34.41749146 1.18113647 -34.41749146 1.18113647 -33.12182617 1.04711914 C-22.10147429 0.05116847 -11.05788242 0.02851035 0 0 Z " fill="#BF5FCC" transform="translate(629.6875,328.6875)"/>
<path d="M0 0 C1.04142151 -0.00328308 2.08284302 -0.00656616 3.15582275 -0.00994873 C19.22517649 -0.02633247 34.56954208 0.84306528 50.3125 4.3125 C51.16360352 4.48040039 52.01470703 4.64830078 52.89160156 4.82128906 C53.70338867 4.9859668 54.51517578 5.15064453 55.3515625 5.3203125 C56.42591553 5.53518311 56.42591553 5.53518311 57.52197266 5.75439453 C59.3125 6.3125 59.3125 6.3125 61.3125 8.3125 C57.99066414 8.3125 55.40450676 8.01746345 52.1875 7.375 C47.61026724 6.50606009 43.08308408 5.94169011 38.4453125 5.52734375 C36.02503906 5.28354331 33.69697458 4.78939492 31.3125 4.3125 C14.00905889 2.10208038 -3.47680498 1.76773678 -20.875 2.75 C-21.56972412 2.78915527 -22.26444824 2.82831055 -22.98022461 2.86865234 C-26.93927772 3.1208952 -30.78769039 3.59134033 -34.6875 4.3125 C-38.4375 5 -38.4375 5 -41.6875 5.3125 C-42.3475 4.6525 -43.0075 3.9925 -43.6875 3.3125 C-29.67181622 -0.80975993 -14.4776642 0.03732752 0 0 Z " fill="#C463D8" transform="translate(629.6875,328.6875)"/>
<path d="M0 0 C7.60596487 1.18836709 14.31519402 3.4724672 21.375 6.5 C22.41575684 6.94142334 23.45651367 7.38284668 24.52880859 7.83764648 C39.76007787 14.3814081 54.31334224 21.61874783 68 31 C67.34 31.66 66.68 32.32 66 33 C64.51714758 32.04737966 63.03881799 31.08771595 61.5625 30.125 C60.73878906 29.59132813 59.91507813 29.05765625 59.06640625 28.5078125 C57 27 57 27 56 25 C53.47266765 24.34444881 53.47266765 24.34444881 51 24 C51 23.34 51 22.68 51 22 C50.41992188 21.81824219 49.83984375 21.63648438 49.2421875 21.44921875 C44.5992701 19.95521068 40.31827514 18.29695486 36 16 C27.46820925 11.53893294 18.61272075 8.20164183 9.5625 4.94921875 C6.31775104 3.74727668 3.16143834 2.40508371 0 1 C0 0.67 0 0.34 0 0 Z " fill="#BF65DF" transform="translate(711,342)"/>
<path d="M0 0 C0.66 0.33 1.32 0.66 2 1 C1.22398437 1.76554199 0.44796875 2.53108398 -0.3515625 3.31982422 C-3.27171677 6.20335659 -6.18490088 9.09384925 -9.09619141 11.98632812 C-10.34922836 13.22940248 -11.6040658 14.47066499 -12.86083984 15.70996094 C-20.05847044 22.81009375 -26.9155064 29.89568559 -33 38 C-33.763125 38.97195313 -34.52625 39.94390625 -35.3125 40.9453125 C-35.869375 41.66460937 -36.42625 42.38390625 -37 43.125 C-37.86625 44.24261719 -37.86625 44.24261719 -38.75 45.3828125 C-39.1625 45.91648437 -39.575 46.45015625 -40 47 C-40.66 46.67 -41.32 46.34 -42 46 C-36.23942758 38.527407 -30.44372414 31.18371967 -24.05078125 24.234375 C-22.13614309 22.14833114 -20.28177042 20.02317954 -18.4375 17.875 C-12.76423048 11.37628941 -6.62294819 5.5191235 0 0 Z " fill="#A657DE" transform="translate(445,397)"/>
<path d="M0 0 C0 0.66 0 1.32 0 2 C-1.40185547 2.74830078 -1.40185547 2.74830078 -2.83203125 3.51171875 C-10.80352523 7.84148132 -18.45422038 12.49358701 -25.9375 17.625 C-27.08859253 18.413302 -27.08859253 18.413302 -28.26293945 19.2175293 C-33.65661651 22.96082841 -38.85418972 26.92385438 -44 31 C-44.66 30.67 -45.32 30.34 -46 30 C-40.72789078 25.2504079 -35.3208584 20.83354366 -29.5625 16.6875 C-28.79478271 16.13425049 -28.02706543 15.58100098 -27.23608398 15.01098633 C-21.81657588 11.16329596 -16.27953912 7.57663554 -10.5625 4.1875 C-9.48947632 3.54784302 -9.48947632 3.54784302 -8.39477539 2.89526367 C-3.38404554 0 -3.38404554 0 0 0 Z " fill="#B85DDB" transform="translate(495,364)"/>
<path d="M0 0 C1.53059747 0.00503112 3.06119657 0.00959114 4.59179688 0.01367188 C8.29039911 0.02453576 11.98893864 0.04170899 15.6875 0.0625 C15.6875 0.3925 15.6875 0.7225 15.6875 1.0625 C11.41304324 2.12283036 7.30853888 2.1382172 2.9375 2.0625 C-3.22516934 2.00923987 -9.34744468 2.13664944 -15.5 2.5 C-16.19383789 2.53931641 -16.88767578 2.57863281 -17.60253906 2.61914062 C-21.56261809 2.87014515 -25.41180003 3.34117568 -29.3125 4.0625 C-33.0625 4.75 -33.0625 4.75 -36.3125 5.0625 C-36.9725 4.4025 -37.6325 3.7425 -38.3125 3.0625 C-25.88200763 -0.59352717 -12.83906185 -0.074409 0 0 Z " fill="#D167D4" transform="translate(624.3125,328.9375)"/>
<path d="M0 0 C0.99 0.33 1.98 0.66 3 1 C2.979375 2.19625 2.95875 3.3925 2.9375 4.625 C2.9375 8.19777508 3.3660345 11.47796942 4 15 C4.26277423 17.5751875 4.49689876 20.15144805 4.71875 22.73046875 C4.94428823 25.16145599 4.94428823 25.16145599 6 28 C6.12781786 30.67394964 6.04391871 33.32095857 6 36 C6.66 36 7.32 36 8 36 C8.144375 37.216875 8.28875 38.43375 8.4375 39.6875 C8.73451213 42.15532135 9.107842 44.45097563 9.6875 46.875 C9.790625 47.57625 9.89375 48.2775 10 49 C9.34 49.66 8.68 50.32 8 51 C4.05463622 34.40371604 0 17.14712214 0 0 Z " fill="#5140E5" transform="translate(349,631)"/>
<path d="M0 0 C3.09401655 3.00545794 5.94464162 6.06842204 8.69091797 9.40258789 C14.54985824 16.49317794 20.87050042 23.06273743 27.375 29.5625 C28.23101807 30.4191626 29.08703613 31.2758252 29.96899414 32.15844727 C34.16493806 36.31821571 38.37724142 40.31835677 43 44 C38.66988519 44 36.17152029 41.70900692 33 39 C31.26932764 37.16116062 29.64963794 35.25529378 28.02734375 33.3203125 C23.35334522 27.97088065 18.16364441 23.01955764 13.02734375 18.1171875 C10.2282316 15.19402991 7.74863106 12.05567209 5.25 8.875 C4.74339844 8.24207031 4.23679687 7.60914063 3.71484375 6.95703125 C0 2.24088191 0 2.24088191 0 0 Z " fill="#3441D8" transform="translate(446,744)"/>
<path d="M0 0 C0.495 0.99 0.495 0.99 1 2 C-1.24201899 5.13981863 -2.61049963 6.75101596 -6.48242188 7.44482422 C-9.58489846 7.56751211 -12.64659008 7.53541248 -15.75 7.4375 C-16.85786865 7.42009766 -17.9657373 7.40269531 -19.10717773 7.38476562 C-28.15474041 7.18046371 -37.06002229 6.37727304 -46 5 C-45.67 4.01 -45.34 3.02 -45 2 C-43.3745692 2.14095064 -41.74965949 2.28792087 -40.125 2.4375 C-39.22007812 2.51871094 -38.31515625 2.59992187 -37.3828125 2.68359375 C-35 3 -35 3 -33 4 C-29.07320061 4.36947557 -25.12793998 4.46876098 -21.1875 4.625 C-19.5468457 4.70234375 -19.5468457 4.70234375 -17.87304688 4.78125 C-16.2865332 4.84699219 -16.2865332 4.84699219 -14.66796875 4.9140625 C-13.70141357 4.9548291 -12.7348584 4.9955957 -11.73901367 5.03759766 C-7.89226063 4.98479438 -4.63821409 4.21273803 -1 3 C-0.67 2.01 -0.34 1.02 0 0 Z " fill="#0D3DD0" transform="translate(629,883)"/>
<path d="M0 0 C5.79767507 1.63328243 10.79985499 4.45948581 16.0625 7.3125 C24.92645205 12.04122072 33.64581621 15.9129726 43.19921875 19.05078125 C45.61021182 19.86789606 47.76371678 20.79584749 50 22 C50 22.66 50 23.32 50 24 C36.06233341 20.63815077 23.08378168 13.68753503 10.4375 7.125 C9.05340942 6.41053711 9.05340942 6.41053711 7.64135742 5.68164062 C6.3628894 5.0077832 6.3628894 5.0077832 5.05859375 4.3203125 C4.29861084 3.92086426 3.53862793 3.52141602 2.75561523 3.10986328 C1 2 1 2 0 0 Z " fill="#1542DB" transform="translate(488,852)"/>
<path d="M0 0 C-0.928125 0.5775 -1.85625 1.155 -2.8125 1.75 C-5.63145447 3.73985022 -7.04562867 5.26388013 -9 8 C-9.66 8 -10.32 8 -11 8 C-11.144375 9.134375 -11.28875 10.26875 -11.4375 11.4375 C-12 15 -12 15 -13 16 C-13.09927286 17.9562593 -13.12969729 19.91622909 -13.125 21.875 C-13.12757813 22.94492187 -13.13015625 24.01484375 -13.1328125 25.1171875 C-13.12784318 28.07019169 -13.12784318 28.07019169 -12 31 C-13.32 30.34 -14.64 29.68 -16 29 C-16.45382247 16.88125935 -15.79950563 10.71213745 -7.62109375 1.6015625 C-4.8550871 -1.13111877 -3.59295825 -1.07788747 0 0 Z " fill="#7441E4" transform="translate(540,490)"/>
<path d="M0 0 C1.76763173 1.61612044 3.38768765 3.23517162 5 5 C5.47695313 5.51175781 5.95390625 6.02351562 6.4453125 6.55078125 C10.77278363 12.1270369 10.83448273 18.34114747 10.5 25.125 C9.84441926 30.20575073 8.344107 34.09854183 5 38 C4.01 38.495 4.01 38.495 3 39 C3.52886161 36.35569195 4.27897773 34.47552186 5.5625 32.0625 C8.21355686 25.95981959 8.04229655 18.57650776 6.203125 12.265625 C4.91014107 9.22213975 3.77919496 6.74014223 1.36328125 4.4453125 C0 3 0 3 0 0 Z " fill="#2D3FDB" transform="translate(737,752)"/>
<path d="M0 0 C1.08839774 0.88967344 2.17044608 1.78711574 3.25 2.6875 C4.15492188 3.43580078 4.15492188 3.43580078 5.078125 4.19921875 C7 6 7 6 8.9296875 8.45703125 C11.05331957 11.06549253 13.218369 12.94752496 15.875 15 C18.77947804 17.26284077 21.65239257 19.5293244 24.4375 21.9375 C26.89047155 24.15709509 26.89047155 24.15709509 30 25 C30.433125 25.515625 30.86625 26.03125 31.3125 26.5625 C33.78583126 28.66941181 35.8637368 28.20908421 39 28 C37 31 37 31 34.7578125 31.49609375 C30.89870884 30.80189238 28.68037516 28.62885027 25.875 26.0625 C24.7235325 25.04588166 23.57117424 24.03027142 22.41796875 23.015625 C21.84481934 22.50580078 21.27166992 21.99597656 20.68115234 21.47070312 C18.24536861 19.33983452 15.71705228 17.33049708 13.1875 15.3125 C3.42863623 7.34228429 3.42863623 7.34228429 0 3 C0 2.01 0 1.02 0 0 Z " fill="#323DD9" transform="translate(826,730)"/>
<path d="M0 0 C11.95658045 1.96009516 21.82244727 15.50162733 28.59375 24.546875 C29.0578125 25.35640625 29.521875 26.1659375 30 27 C29.67 27.99 29.34 28.98 29 30 C28.68546875 29.46890625 28.3709375 28.9378125 28.046875 28.390625 C25.66159825 24.45348145 23.37547216 21.16450515 20 18 C18.8553125 16.5459375 18.8553125 16.5459375 17.6875 15.0625 C14.89684172 11.6677663 11.61281921 9.44786935 8 7 C6.51407135 5.92596034 5.03486113 4.8425648 3.5625 3.75 C2.88316406 3.24984375 2.20382812 2.7496875 1.50390625 2.234375 C1.00761719 1.82703125 0.51132812 1.4196875 0 1 C0 0.67 0 0.34 0 0 Z " fill="#7645E4" transform="translate(690,501)"/>
<path d="M0 0 C0.33 0 0.66 0 1 0 C1.02690104 2.79173055 1.04679053 5.58320348 1.0625 8.375 C1.07087891 9.1690625 1.07925781 9.963125 1.08789062 10.78125 C1.11328125 16.7734375 1.11328125 16.7734375 0 19 C-0.21691392 20.37206521 -0.38923163 21.75139272 -0.53515625 23.1328125 C-0.62216797 23.93847656 -0.70917969 24.74414062 -0.79882812 25.57421875 C-0.88583984 26.41597656 -0.97285156 27.25773438 -1.0625 28.125 C-1.15337891 28.97449219 -1.24425781 29.82398438 -1.33789062 30.69921875 C-1.5620368 32.7991145 -1.78146448 34.89951293 -2 37 C-4.40726955 33.30147475 -4.06887861 30.36794286 -3.6875 26.0625 C-3.58824219 24.85722656 -3.48898437 23.65195312 -3.38671875 22.41015625 C-3.06263731 19.55234721 -2.62276972 16.80512513 -2 14 C-1.67 14 -1.34 14 -1 14 C-0.67 9.38 -0.34 4.76 0 0 Z " fill="#4A3CCE" transform="translate(907,615)"/>
<path d="M0 0 C3.36179774 1.44077046 5.59156268 3.24750021 8 6 C8 6.66 8 7.32 8 8 C8.66 8 9.32 8 10 8 C11.55078125 9.5390625 11.55078125 9.5390625 13.3125 11.625 C13.92867187 12.34945312 14.54484375 13.07390625 15.1796875 13.8203125 C15.78039062 14.53960938 16.38109375 15.25890625 17 16 C17.51820313 16.61617187 18.03640625 17.23234375 18.5703125 17.8671875 C19.71958835 19.23975123 20.8607561 20.6190983 22 22 C21.67 22.66 21.34 23.32 21 24 C18.43034327 21.31926691 15.87063866 18.62922292 13.3125 15.9375 C12.59126953 15.18533203 11.87003906 14.43316406 11.12695312 13.65820312 C7.00920518 9.31482516 3.34362015 4.96596839 0 0 Z " fill="#2B41E1" transform="translate(689,770)"/>
<path d="M0 0 C0 0.66 0 1.32 0 2 C-1.08667969 2.18175781 -1.08667969 2.18175781 -2.1953125 2.3671875 C-8.31520548 3.41263647 -8.31520548 3.41263647 -14.25 5.1875 C-17.77075145 6.22772202 -20.43874654 5.71225069 -24 5 C-16.96333084 1.0622046 -8.00823453 -0.55871404 0 0 Z " fill="#BE5CC5" transform="translate(586,332)"/>
<path d="M0 0 C0.99 0.33 1.98 0.66 3 1 C-1.77016094 5.19195962 -6.59552716 8.12737673 -13.0625 8.3125 C-16.73609594 8.02094477 -19.59404702 7.36238119 -23 6 C-23 5.67 -23 5.34 -23 5 C-22.23816406 5.11859375 -21.47632813 5.2371875 -20.69140625 5.359375 C-14.06875651 6.18617272 -9.66190443 6.10853811 -3.7421875 2.91015625 C-2 2 -2 2 0 2 C0 1.34 0 0.68 0 0 Z " fill="#2138C9" transform="translate(737,791)"/>
<path d="M0 0 C4.05789914 3.99676318 7.94796935 8.12915634 11.8125 12.3125 C12.40998047 12.95767578 13.00746094 13.60285156 13.62304688 14.26757812 C15.08291428 15.84423492 16.54158093 17.42200338 18 19 C17.34 19.66 16.68 20.32 16 21 C15.59910156 20.53851562 15.19820312 20.07703125 14.78515625 19.6015625 C14.21667969 18.94929687 13.64820313 18.29703125 13.0625 17.625 C12.4334375 16.90183594 11.804375 16.17867187 11.15625 15.43359375 C9.63661816 13.71850202 8.09246984 12.02497947 6.53125 10.34765625 C5.7165625 9.46980469 4.901875 8.59195313 4.0625 7.6875 C3.29035156 6.86636719 2.51820313 6.04523437 1.72265625 5.19921875 C0 3 0 3 0 0 Z " fill="#3940DF" transform="translate(719,732)"/>
<path d="M0 0 C0.33 0 0.66 0 1 0 C1.33 10.56 1.66 21.12 2 32 C1.67 32 1.34 32 1 32 C1 30.35 1 28.7 1 27 C0.34 27 -0.32 27 -1 27 C-0.67 18.09 -0.34 9.18 0 0 Z " fill="#5241CC" transform="translate(402,600)"/>
<path d="M0 0 C0.33 0.99 0.66 1.98 1 3 C-0.4765625 5.671875 -0.4765625 5.671875 -2.625 8.75 C-3.35976563 9.8121875 -4.09453125 10.874375 -4.8515625 11.96875 C-5.56054688 12.9690625 -6.26953125 13.969375 -7 15 C-7.81597656 16.16015625 -7.81597656 16.16015625 -8.6484375 17.34375 C-9.75451661 18.9037691 -10.87521169 20.45341607 -12 22 C-12.33 21.34 -12.66 20.68 -13 20 C-12.24316406 18.36767578 -12.24316406 18.36767578 -11.015625 16.4453125 C-10.57476562 15.74792969 -10.13390625 15.05054688 -9.6796875 14.33203125 C-8.97199219 13.23955078 -8.97199219 13.23955078 -8.25 12.125 C-7.79367187 11.40441406 -7.33734375 10.68382812 -6.8671875 9.94140625 C-4.69455275 6.53175114 -2.49957224 3.18278866 0 0 Z " fill="#9450E6" transform="translate(401,446)"/>
<path d="M0 0 C7.75493514 -0.09928082 15.31068715 -0.06059488 23 1 C23 1.33 23 1.66 23 2 C15.1586052 2.8895125 7.83262041 3.00220537 0 2 C0 1.34 0 0.68 0 0 Z " fill="#BF5EC9" transform="translate(640,329)"/>
<path d="M0 0 C0.66 0.33 1.32 0.66 2 1 C1.25556641 1.92619141 1.25556641 1.92619141 0.49609375 2.87109375 C-4.05304786 8.54241451 -8.55375434 14.24766967 -13 20 C-13.66 19.67 -14.32 19.34 -15 19 C-13.25027888 16.77061395 -11.50023195 14.54148496 -9.75 12.3125 C-9.25886719 11.68666016 -8.76773437 11.06082031 -8.26171875 10.41601562 C-5.52440413 6.93050167 -2.77506692 3.45561905 0 0 Z " fill="#9A52DF" transform="translate(418,424)"/>
<path d="M0 0 C4.86071106 0.86126652 9.56668547 2.22528154 14.3125 3.5625 C15.14845703 3.79646484 15.98441406 4.03042969 16.84570312 4.27148438 C18.89759586 4.84601434 20.94886114 5.42278439 23 6 C23 6.66 23 7.32 23 8 C20.29081668 7.37851697 17.58268873 6.75293439 14.875 6.125 C14.11445312 5.95097656 13.35390625 5.77695312 12.5703125 5.59765625 C8.29274576 4.60201572 4.14594191 3.47028611 0 2 C0 1.34 0 0.68 0 0 Z " fill="#1240D9" transform="translate(539,875)"/>
<path d="M0 0 C0.96421875 0.2165625 1.9284375 0.433125 2.921875 0.65625 C4.81679688 1.07390625 4.81679688 1.07390625 6.75 1.5 C8.00296875 1.7784375 9.2559375 2.056875 10.546875 2.34375 C14.06912245 3.12446903 14.06912245 3.12446903 18 3 C18.33 3.99 18.66 4.98 19 6 C16.77058595 5.68926976 14.54147788 5.37634375 12.3125 5.0625 C11.07113281 4.88847656 9.82976563 4.71445312 8.55078125 4.53515625 C5.67525452 4.10177103 2.84355187 3.60350718 0 3 C0 2.01 0 1.02 0 0 Z " fill="#1141DA" transform="translate(563,881)"/>
<path d="M0 0 C0.99 0.33 1.98 0.66 3 1 C2.979375 2.19625 2.95875 3.3925 2.9375 4.625 C2.92297952 7.35969126 3.11232653 9.59533062 3.625 12.3125 C4 15 4 15 2 18 C1.34 12.06 0.68 6.12 0 0 Z " fill="#5C41EB" transform="translate(349,631)"/>
<path d="M0 0 C-1 3 -1 3 -4.1875 4.6875 C-7.5347925 6.01535157 -10.38491227 6.26451861 -14 6 C-11.894132 3.894132 -10.2634771 3.07247753 -7.5625 1.875 C-6.78003906 1.52179688 -5.99757813 1.16859375 -5.19140625 0.8046875 C-3 0 -3 0 0 0 Z " fill="#B559C6" transform="translate(527,348)"/>
<path d="M0 0 C0.33 0.66 0.66 1.32 1 2 C-0.65083123 4.4456759 -1.47145275 5.57581825 -4 7 C-8.36272089 7.44894828 -12.62919727 7.28797383 -17 7 C-15 5 -15 5 -12.7578125 4.875 C-11.00780077 4.95808661 -9.25780066 5.04141848 -7.5078125 5.125 C-4.76204412 4.98813927 -3.26471397 4.54366154 -1 3 C-0.67 2.01 -0.34 1.02 0 0 Z " fill="#1045E6" transform="translate(629,883)"/>
<path d="M0 0 C4.25357064 0.80890553 6.1483486 2.75228591 9 6 C9 6.66 9 7.32 9 8 C9.99 8.33 10.98 8.66 12 9 C12.6875 11.0625 12.6875 11.0625 13 13 C8.11950075 9.0580583 3.9419417 4.88049925 0 0 Z " fill="#9855EA" transform="translate(781,443)"/>
<path d="M0 0 C6.20988129 0.44356295 10.60540561 1.91532502 16 5 C16 5.66 16 6.32 16 7 C10.42666667 5.22666667 10.42666667 5.22666667 8 3.9375 C5.39155804 2.71479283 2.83998588 2.3872708 0 2 C0 1.34 0 0.68 0 0 Z " fill="#6E40DA" transform="translate(649,536)"/>
<path d="M0 0 C6.43681228 0.51085812 11.95942424 1.72942897 18 4 C17.34 4.66 16.68 5.32 16 6 C13.64828869 5.40138258 11.3140622 4.73075648 9 4 C8.67 3.34 8.34 2.68 8 2 C7.01 2.33 6.02 2.66 5 3 C2.3125 2.0625 2.3125 2.0625 0 1 C0 0.67 0 0.34 0 0 Z " fill="#C669DE" transform="translate(692,337)"/>
<path d="M0 0 C1.0349918 3.55860017 0.86483277 5.06156338 -0.75 8.4375 C-1.12125 9.21867188 -1.4925 9.99984375 -1.875 10.8046875 C-3.14198017 13.27705853 -4.49370793 15.66524728 -6 18 C-6.33 17.34 -6.66 16.68 -7 16 C-5.92664301 13.23325418 -4.79739939 10.56805742 -3.5625 7.875 C-3.22412109 7.12089844 -2.88574219 6.36679687 -2.53710938 5.58984375 C-1.69839399 3.72340669 -0.85008607 1.8612857 0 0 Z " fill="#4240DC" transform="translate(837,693)"/>
<path d="M0 0 C0.33 0.66 0.66 1.32 1 2 C-0.722865 6.47944901 -2.81172861 10.72766062 -5 15 C-5.68359375 13.359375 -5.68359375 13.359375 -6 11 C-4.78515625 8.203125 -4.78515625 8.203125 -3.0625 5.25 C-2.49660156 4.26515625 -1.93070312 3.2803125 -1.34765625 2.265625 C-0.90292969 1.51796875 -0.45820313 0.7703125 0 0 Z " fill="#8E50EA" transform="translate(381,479)"/>
<path d="M0 0 C1.40907283 2.81814566 0.50872691 4.17277204 -0.4375 7.125 C-0.72496094 8.03507813 -1.01242187 8.94515625 -1.30859375 9.8828125 C-1.53675781 10.58148437 -1.76492188 11.28015625 -2 12 C-2.66 12 -3.32 12 -4 12 C-3.71905418 10.1858073 -3.42493567 8.37364999 -3.125 6.5625 C-2.96257812 5.55316406 -2.80015625 4.54382813 -2.6328125 3.50390625 C-2.42398437 2.67761719 -2.21515625 1.85132813 -2 1 C-1.34 0.67 -0.68 0.34 0 0 Z " fill="#100A2C" transform="translate(359,530)"/>
<path d="M0 0 C3.45195767 1.4258086 5.1014256 3.09746334 7.25 6.125 C8.03117188 7.21167969 8.03117188 7.21167969 8.828125 8.3203125 C9.40820312 9.15175781 9.40820312 9.15175781 10 10 C9.67 10.66 9.34 11.32 9 12 C7.49405319 10.38050958 5.99539332 8.75424026 4.5 7.125 C3.6646875 6.22007812 2.829375 5.31515625 1.96875 4.3828125 C0 2 0 2 0 0 Z " fill="#874DDE" transform="translate(795,457)"/>
<path d="M0 0 C5.40489519 1.52012677 8.98492628 5.27385218 13 9 C8.9666466 9 7.16482462 7.39120082 4 5 C4 4.34 4 3.68 4 3 C2.68 2.67 1.36 2.34 0 2 C0 1.34 0 0.68 0 0 Z " fill="#AA5FE2" transform="translate(797,387)"/>
<path d="M0 0 C3.63 1.98 7.26 3.96 11 6 C11 6.99 11 7.98 11 9 C10.45730469 8.65066406 9.91460938 8.30132812 9.35546875 7.94140625 C8.64003906 7.48636719 7.92460938 7.03132813 7.1875 6.5625 C6.47980469 6.11003906 5.77210938 5.65757812 5.04296875 5.19140625 C2.91865448 3.85913661 2.91865448 3.85913661 0 3 C0 2.01 0 1.02 0 0 Z " fill="#B35FDE" transform="translate(767,366)"/>
<path d="M0 0 C-2.67477931 2.67477931 -5.492975 3.6464114 -9 5 C-9.99 5 -10.98 5 -12 5 C-12 4.34 -12 3.68 -12 3 C-7.77050005 0.58314288 -4.87664009 -0.34833144 0 0 Z " fill="#C15FD3" transform="translate(517,354)"/>
<path d="M0 0 C0.99 0 1.98 0 3 0 C1.94124926 3.40312738 0.99097846 6.01353231 -1 9 C-1.66 9 -2.32 9 -3 9 C-2.01 6.03 -1.02 3.06 0 0 Z " fill="#7944D6" transform="translate(372,496)"/>
<path d="M0 0 C1.18851563 0.00902344 2.37703125 0.01804687 3.6015625 0.02734375 C4.51679687 0.03894531 5.43203125 0.05054688 6.375 0.0625 C4.375 2.0625 4.375 2.0625 1 2.125 C-0.19625 2.104375 -1.3925 2.08375 -2.625 2.0625 C-3.388125 2.26875 -4.15125 2.475 -4.9375 2.6875 C-5.494375 2.81125 -6.05125 2.935 -6.625 3.0625 C-7.285 2.4025 -7.945 1.7425 -8.625 1.0625 C-5.74084117 -0.37957941 -3.20778472 -0.03144887 0 0 Z " fill="#D667DA" transform="translate(594.625,330.9375)"/>
<path d="M0 0 C0.99 0.33 1.98 0.66 3 1 C1.71372289 2.17260611 0.42080217 3.3379283 -0.875 4.5 C-1.59429687 5.1496875 -2.31359375 5.799375 -3.0546875 6.46875 C-5 8 -5 8 -7 8 C-5.64458676 3.93376028 -3.42990531 2.46953182 0 0 Z " fill="#AE5CE2" transform="translate(485,432)"/>
<path d="M0 0 C1.77049689 -0.05410687 3.54146849 -0.09284119 5.3125 -0.125 C6.29863281 -0.14820313 7.28476562 -0.17140625 8.30078125 -0.1953125 C11 0 11 0 14 2 C10.278452 2.95696948 7.71394431 2.95229341 4 2 C2.8553125 1.7215625 2.8553125 1.7215625 1.6875 1.4375 C1.130625 1.293125 0.57375 1.14875 0 1 C0 0.67 0 0.34 0 0 Z " fill="#CE66DC" transform="translate(657,331)"/>
<path d="M0 0 C3.21043882 1.38188453 5.04936365 2.92421903 7.25 5.625 C8.03117188 6.57246094 8.03117188 6.57246094 8.828125 7.5390625 C9.40820312 8.26222656 9.40820312 8.26222656 10 9 C7 9 7 9 5.17578125 7.28515625 C4.56089844 6.55167969 3.94601562 5.81820312 3.3125 5.0625 C2.68988281 4.33160156 2.06726563 3.60070312 1.42578125 2.84765625 C0 1 0 1 0 0 Z " fill="#2D3CDE" transform="translate(680,760)"/>
<path d="M0 0 C3.8665284 3.222107 4.88059018 6.14922412 6 11 C5.34 11 4.68 11 4 11 C3.32591692 9.73308493 2.66099503 8.46129251 2 7.1875 C1.62875 6.47980469 1.2575 5.77210938 0.875 5.04296875 C0 3 0 3 0 0 Z " fill="#7349EA" transform="translate(678,554)"/>
<path d="M0 0 C0.66 0 1.32 0 2 0 C2.45375 0.928125 2.9075 1.85625 3.375 2.8125 C4.9421633 6.03921389 4.9421633 6.03921389 7 9 C6.34 9.66 5.68 10.32 5 11 C4.16151196 9.54462432 3.32936066 8.08559627 2.5 6.625 C1.80390625 5.40683594 1.80390625 5.40683594 1.09375 4.1640625 C0 2 0 2 0 0 Z " fill="#393EE1" transform="translate(385,747)"/>
<path d="M0 0 C3.79588866 0.54226981 5.47211993 2.20127563 8 5 C7.67 5.66 7.34 6.32 7 7 C5.83040013 6.02433888 4.66438823 5.044375 3.5 4.0625 C2.8503125 3.51722656 2.200625 2.97195313 1.53125 2.41015625 C1.0259375 1.94480469 0.520625 1.47945313 0 1 C0 0.67 0 0.34 0 0 Z " fill="#9352DD" transform="translate(773,436)"/>
<path d="M0 0 C3.7952131 1.49097658 5.61042731 3.75700849 8 7 C7.67 7.66 7.34 8.32 7 9 C5.83037314 7.69013727 4.66437056 6.3770374 3.5 5.0625 C2.8503125 4.33160156 2.200625 3.60070312 1.53125 2.84765625 C0 1 0 1 0 0 Z " fill="#243CD4" transform="translate(703,785)"/>
<path d="M0 0 C0.66 1.32 1.32 2.64 2 4 C1.67 4.33 1.34 4.66 1 5 C0.76924918 6.34747084 0.58846937 7.70377565 0.4375 9.0625 C0.293125 10.361875 0.14875 11.66125 0 13 C-0.33 13 -0.66 13 -1 13 C-1.02696365 11.20841511 -1.04637917 9.41671527 -1.0625 7.625 C-1.07410156 6.62726562 -1.08570313 5.62953125 -1.09765625 4.6015625 C-1 2 -1 2 0 0 Z " fill="#3B41DA" transform="translate(826,717)"/>
<path d="M0 0 C0.33 0 0.66 0 1 0 C1.25 3.25 1.25 3.25 1 7 C-0.32 8.32 -1.64 9.64 -3 11 C-2.01 7.37 -1.02 3.74 0 0 Z " fill="#100F49" transform="translate(896,688)"/>
<path d="M0 0 C0.99 0.33 1.98 0.66 3 1 C2.67 3.64 2.34 6.28 2 9 C0 7 0 7 -0.125 3.375 C-0.08375 2.26125 -0.0425 1.1475 0 0 Z " fill="#643FDB" transform="translate(350,573)"/>
<path d="M0 0 C0.5534764 2.07553648 1 3.84365964 1 6 C-0.32 6.33 -1.64 6.66 -3 7 C-2.38722388 4.03824877 -1.74627478 2.61941217 0 0 Z " fill="#533BDE" transform="translate(579,627)"/>
<path d="M0 0 C1.27351308 2.54702616 0.80191925 3.4282945 0.0625 6.125 C-0.13214844 6.84945312 -0.32679688 7.57390625 -0.52734375 8.3203125 C-0.68332031 8.87460937 -0.83929688 9.42890625 -1 10 C-3 7 -3 7 -2.75 3.875 C-2.37875 2.451875 -2.37875 2.451875 -2 1 C-1.34 0.67 -0.68 0.34 0 0 Z " fill="#110B33" transform="translate(355,545)"/>
<path d="M0 0 C0.66 0 1.32 0 2 0 C1.34 1.98 0.68 3.96 0 6 C-0.66 6 -1.32 6 -2 6 C-2.33 6.99 -2.66 7.98 -3 9 C-2.5020163 5.26512223 -2.12508244 3.18762365 0 0 Z " fill="#6F41D6" transform="translate(528,496)"/>
<path d="M0 0 C0 0.66 0 1.32 0 2 C-2.31 2.66 -4.62 3.32 -7 4 C-7 3.01 -7 2.02 -7 1 C-4.50935112 0.31292445 -2.62113708 0 0 0 Z " fill="#C663D6" transform="translate(534,346)"/>
</svg>
